# xmcd
#
# Track frame offsets: 
#        150
#        13732
#        28281
#        42888
#        57041
#        66747
#        79532
#        94147
#        109951
#        125019
#        140260
#
# Disc length: 2153 seconds
#
# Revision: 0
# Processed by: cddbd v1.5.2PL0 Copyright (c) Steve Scherf et al.
# Submitted via: ExactAudioCopy v0.95b4
#
DISCID=9a08670b
DTITLE=The Dilettantes - This Small Town
DYEAR=1999
DGENRE=Swing
TTITLE0=Black Velvet Elvis
TTITLE1=Red Dirt Road
TTITLE2=Someone Else Tonight
TTITLE3=This Small Town
TTITLE4=Redbone
TTITLE5=Harold
TTITLE6=Sweet Virginia
TTITLE7=Ocmulgee
TTITLE8=My Bass Man
TTITLE9=Hey Sweet Baby
TTITLE10=Port Au Prince
EXTD=
EXTT0=
EXTT1=
EXTT2=
EXTT3=
EXTT4=
EXTT5=
EXTT6=
EXTT7=
EXTT8=
EXTT9=
EXTT10=
PLAYORDER=
